HIERARCHY
ROOT Hips
{
  OFFSET 0 0 0
  CHANNELS 6 Xposition Yposition Zposition Zrotation Yrotation Xrotation
  JOINT LeftThigh
  {
    OFFSET 8.409438 0 -5.917753
    CHANNELS 3 Zrotation Yrotation Xrotation
    JOINT LeftLeg
    {
      OFFSET 0 0 -42.358652
      CHANNELS 3 Zrotation Yrotation Xrotation
      JOINT LeftFoot
      {
        OFFSET 0 0 -39.357303
        CHANNELS 3 Zrotation Yrotation Xrotation
      }
    }
  }
  JOINT RightThigh
  {
    OFFSET -8.409438 0 -5.917753
    CHANNELS 3 Zrotation Yrotation Xrotation
    JOINT RightLeg
    {
      OFFSET 0 0 -42.358652
      CHANNELS 3 Zrotation Yrotation Xrotation
      JOINT RightFoot
      {
        OFFSET 0 0 -39.357303
        CHANNELS 3 Zrotation Yrotation Xrotation
      }
    }
  }
  JOINT SpineLow
  {
    OFFSET 0 0 4.719101
    CHANNELS 3 Zrotation Yrotation Xrotation
    JOINT SpineMid
    {
      OFFSET 0 0 12.899191
      CHANNELS 3 Zrotation Yrotation Xrotation
      JOINT Chest
      {
        OFFSET 0 0 12.899191
        CHANNELS 3 Zrotation Yrotation Xrotation
        JOINT LeftShoulder
        {
          OFFSET 7.550562 1.41573 9.438202
          CHANNELS 3 Zrotation Yrotation Xrotation
          JOINT LeftArm
          {
            OFFSET 9.155056 0 4.247191
            CHANNELS 3 Zrotation Yrotation Xrotation
            JOINT LeftForearm
            {
              OFFSET 0 0 25.771955
              CHANNELS 3 Zrotation Yrotation Xrotation
              JOINT LeftHand
              {
                OFFSET 0 0 25.197169
                CHANNELS 3 Zrotation Yrotation Xrotation
              }
            }
          }
        }
        JOINT RightShoulder
        {
          OFFSET -7.550562 1.41573 9.438202
          CHANNELS 3 Zrotation Yrotation Xrotation
          JOINT RightArm
          {
            OFFSET -9.155056 0 4.247191
            CHANNELS 3 Zrotation Yrotation Xrotation
            JOINT RightForearm
            {
              OFFSET 0 0 -25.771955
              CHANNELS 3 Zrotation Yrotation Xrotation
              JOINT RightHand
              {
                OFFSET 0 0 -25.197169
                CHANNELS 3 Zrotation Yrotation Xrotation
              }
            }
          }
        }
        JOINT Neck
        {
          OFFSET 0 0 15.101124
          CHANNELS 3 Zrotation Yrotation Xrotation
          JOINT Head
          {
            OFFSET 0 0 11.325843
            CHANNELS 3 Zrotation Yrotation Xrotation
            End Site
            {
              OFFSET 0 0 14.157303
            }
          }
        }
      }
    }
  }
}
MOTION
Frames: 14
Frame Time: 0.0
0.0  93.25843  0.0  -3.980515  5.814851  -89.807021  14.129873  -17.230987  -6.176136  -7.912808  1.616327  13.295731  1.97445  -0.192332  1.163529  -24.346143  -0.110065  -7.292061  -14.813841  9.025627  7.285743  3.280755  1.518426  0.698192  3.466542  -2.067777  0.608369  9.44442  -5.725595  1.36554  9.444419  -5.725594  1.36554  -3.506659  30.071424  2.024805  -174.458901  31.300453  -172.909684  8.024582  21.454418  114.398041  30.463497  -0.508259  -4.883512  -7.56068  2.399162  26.564004  68.2678  52.735427  26.120813  -18.718442  31.264313  -53.950613  65.006528  -17.320746  27.650654  -22.932424  4.078502  -1.133345  -17.184542  3.106614  -0.697419  
0.0  93.25843  0.0  -3.998644  4.870434  -89.701737  14.863268  -17.183327  -6.187082  -7.914478  1.546648  13.445497  2.12469  -0.108448  1.203482  -24.033288  -0.643918  -7.768767  -14.63886  9.585738  7.925577  3.439844  1.651492  0.617182  3.733032  -2.015788  0.597006  10.175644  -5.586694  1.319019  10.175644  -5.586694  1.31902  -3.839723  29.63406  2.425723  -172.370481  29.415365  -174.380255  6.823377  24.780964  113.841525  23.629446  -6.790166  -2.274848  -7.268066  1.410994  26.89395  72.556946  55.914761  28.06333  -11.04309  30.737649  -41.537382  66.063888  -19.409106  20.68869  -23.395985  4.072937  -0.875685  -17.533784  3.09362  -0.50107  
0.0  93.25843  0.0  -3.812846  4.193471  -89.564712  14.460389  -16.941677  -6.502222  -7.247754  1.482606  14.148972  2.4212  -0.040288  1.346684  -24.376865  -0.914711  -8.34009  -14.272233  9.959182  8.524459  3.814207  1.829249  0.576599  3.713731  -1.945589  0.497937  10.131124  -5.379898  1.060701  10.131125  -5.379898  1.060701  -2.161566  29.142794  3.701388  -171.5129  26.471361  -175.826491  4.492142  27.672947  111.507316  18.579522  -12.530512  1.468132  -5.662835  -0.222257  28.276293  76.343961  59.909227  30.313268  -0.469083  29.343281  -28.654607  67.015822  -21.186241  12.457906  -22.75877  4.369225  -0.212532  -17.059258  3.290245  0.003806  
0.0  93.25843  0.0  -3.829095  3.329755  -89.591628  14.591368  -16.952505  -6.434847  -6.961356  1.471809  14.504888  2.564172  -0.024051  1.387352  -24.940374  -1.209491  -8.631993  -13.678353  10.195291  9.020289  4.110585  1.903548  0.537938  3.851839  -1.997623  0.464159  10.512293  -5.518108  0.948841  10.512293  -5.518108  0.948842  -1.312617  29.077096  4.612433  -171.216571  22.999549  -176.829651  1.893471  30.384879  108.773861  17.318442  -16.188305  2.811536  -4.718027  -1.970398  29.446262  80.224706  64.226305  33.364198  11.502982  24.902541  -16.192306  65.842016  -21.585985  6.746182  -22.683865  4.874906  0.025248  -17.002793  3.661221  0.200731  
0.0  93.25843  0.0  -3.888296  2.636144  -89.733152  14.554929  -17.141141  -6.211672  -6.683483  1.565395  14.827654  2.736056  -0.023835  1.456505  -25.746161  -1.414351  -8.706648  -12.819393  10.395711  9.442146  4.298693  1.917888  0.458135  4.02666  -2.144992  0.444454  10.993664  -5.918246  0.85585  10.993665  -5.918247  0.85585  -0.387123  29.582769  5.887266  -170.644285  20.687726  -177.031287  -0.430349  33.263195  107.416903  19.063181  -16.909314  -0.306563  -3.758847  -2.931776  29.296695  83.101026  66.732502  36.148571  19.0552  18.053954  -7.591727  63.847683  -20.143378  3.91964  -22.800488  5.565533  0.150056  -17.088223  4.175437  0.321375  
0.0  93.25843  0.0  -3.928757  2.408471  -89.72205  13.794604  -17.287376  -6.182813  -6.128868  1.702  15.301726  2.818558  -0.022178  1.454332  -26.933233  -1.597984  -8.903047  -12.032178  10.486722  9.805986  4.609307  1.909048  0.411797  4.197049  -2.216027  0.40737  11.464556  -6.106844  0.726858  11.464556  -6.106843  0.726858  0.330261  29.748423  6.624795  -169.231326  20.299276  -176.770234  -1.312248  35.095541  106.70764  20.092223  -17.195562  -4.956452  -3.411395  -3.184466  29.032836  80.438127  66.953724  34.034468  17.848367  14.150878  -4.54735  63.999267  -19.574596  2.809198  -23.065141  5.774284  0.356966  -17.287521  4.324543  0.487089  
0.0  93.25843  0.0  -4.344719  0.974969  -90.011576  15.505984  -18.084431  -5.641083  -6.791015  2.123345  15.06289  2.885573  0.003182  1.40211  -26.687021  -1.960146  -8.6639  -11.305008  10.453169  10.221147  4.605609  1.811519  0.330424  4.585008  -2.307633  0.418844  12.527903  -6.360821  0.704601  12.527904  -6.360821  0.704601  1.095839  29.837231  6.859035  -167.004592  20.778887  -176.106873  -0.854159  35.577942  105.953032  19.191979  -18.729566  -7.872983  -3.410456  -2.782017  29.525583  72.74893  66.648169  26.709275  14.162838  12.851319  -3.937642  62.753414  -18.532396  4.899745  -23.464969  5.589557  0.591986  -17.590134  4.176743  0.660197  
0.0  93.25843  0.0  -4.565325  0.971235  -89.829931  15.107346  -18.332673  -6.126355  -6.645658  2.338621  15.656557  3.045586  0.045948  1.402303  -27.431526  -2.320728  -8.920989  -10.590645  10.415592  10.719067  4.757521  1.831544  0.268921  4.778624  -2.293728  0.349118  13.065083  -6.310348  0.498239  13.065084  -6.310348  0.498239  2.024868  29.873451  6.949457  -165.776834  20.98261  -175.493646  -1.390209  36.018057  104.084404  17.033981  -20.372444  -8.535401  -3.602779  -2.249227  30.100406  66.469368  66.559099  20.611602  9.679067  11.945539  -5.124012  62.078443  -17.425572  8.098037  -23.938788  5.041452  0.888156  -17.949823  3.753135  0.86537  
0.0  93.25843  0.0  -4.884954  1.067482  -89.750378  15.145306  -18.6149  -6.705096  -6.87856  2.475124  16.168954  3.348347  0.117133  1.550992  -27.771493  -2.731628  -8.977703  -10.287172  10.451759  11.117964  4.794258  1.862295  0.210596  4.960127  -2.293823  0.268728  13.570218  -6.294596  0.261442  13.570218  -6.294595  0.261442  2.863919  30.002722  7.533985  -166.410733  20.197694  -175.199113  -3.983577  37.494249  101.546724  16.224268  -20.868773  -8.714775  -4.37798  -1.762476  30.814532  62.560169  66.187366  16.449964  6.996916  12.104143  -6.808688  62.366213  -16.377926  10.492223  -24.102098  4.417192  1.468264  -18.078309  3.261014  1.277679  
0.0  93.25843  0.0  -5.199115  1.144077  -89.795731  15.545889  -18.867877  -7.142816  -7.197102  2.495581  16.522316  3.400473  0.157143  1.616874  -27.645219  -3.068136  -8.859376  -10.487921  10.600429  11.347552  4.792692  1.895032  0.156301  5.044979  -2.30058  0.208444  13.808656  -6.300315  0.087472  13.808655  -6.300315  0.087472  3.106351  30.294596  7.704803  -167.190069  18.980083  -175.206244  -7.400335  38.969275  98.829681  16.734233  -20.806611  -9.212319  -5.170684  -1.541685  31.458319  61.57185  65.949342  15.370427  7.390038  13.636975  -8.502281  61.852942  -15.831387  11.410592  -24.347062  4.130474  1.88626  -18.265296  3.028422  1.582019  
0.0  93.25843  0.0  -5.464522  1.036654  -89.960608  16.218904  -19.112858  -7.195013  -7.336354  2.407284  16.678117  3.507745  0.1752  1.750729  -27.220251  -3.326447  -8.591175  -11.03078  10.782465  11.436158  4.758396  1.863138  0.116209  4.993382  -2.33038  0.168871  13.671741  -6.37341  -0.02172  13.67174  -6.37341  -0.02172  2.509389  30.954944  7.594447  -166.469034  18.216633  -174.925112  -9.921357  39.924366  96.839103  16.020117  -21.102821  -9.197949  -5.61933  -1.708635  31.375684  65.700169  65.721873  18.683405  8.285908  14.803193  -8.739384  60.725279  -15.482627  11.180996  -23.969809  4.216771  2.347903  -17.98571  3.076132  1.929454  
0.0  93.25843  0.0  -5.447752  1.030887  -90.133614  16.668239  -19.140322  -6.97834  -7.479581  2.314396  16.58889  3.335214  0.240758  1.712996  -26.815642  -3.333529  -8.358582  -11.35886  11.027069  11.511182  4.708868  1.901385  0.053542  4.761772  -2.379522  0.1277  13.042105  -6.500257  -0.121389  13.042105  -6.500257  -0.121389  2.960107  31.713533  7.994981  -165.513195  18.085286  -174.685681  -10.831584  40.74729  96.087753  14.659948  -21.622655  -8.629237  -5.434138  -1.723284  31.216593  69.481642  65.23632  21.29118  8.871639  15.505968  -8.206343  59.258229  -14.898793  11.127414  -23.050085  4.858042  2.856276  -17.300313  3.541865  2.328619  
0.0  93.25843  0.0  -4.983323  1.39185  -90.145377  16.46631  -18.726519  -6.777913  -7.737465  2.298795  16.373898  3.318764  0.336465  1.742312  -26.863521  -3.025308  -8.452716  -11.285324  11.294689  11.681286  4.240424  1.761445  -0.029193  4.406128  -2.388687  0.059458  12.074002  -6.515084  -0.274298  12.074001  -6.515084  -0.274298  4.551632  32.111426  8.774281  -165.309284  18.164527  -174.737107  -10.479607  40.726091  96.386842  14.864744  -21.335635  -8.244293  -4.905776  -1.557592  31.234065  71.726812  64.306931  22.524555  7.527009  15.831222  -8.370794  58.83612  -14.072432  11.782995  -21.855426  5.813964  3.48848  -16.411294  4.242358  2.827096  
0.0  93.25843  0.0  -4.642872  0.985974  -90.411496  16.868289  -18.611033  -6.301152  -7.881234  2.364643  16.217194  3.384663  0.38181  1.777849  -26.474159  -2.775074  -8.330219  -11.099724  11.471739  11.903145  4.162529  1.849426  -0.077104  4.211777  -2.425119  0.041363  11.543951  -6.612838  -0.310936  11.54395  -6.612838  -0.310936  5.545914  32.481867  9.321663  -165.362021  18.551058  -174.855221  -9.472829  40.017503  97.288902  14.345082  -21.196284  -7.632025  -4.248359  -1.531142  31.455761  68.870504  63.89967  19.672721  6.697556  16.047897  -9.329996  59.578002  -13.320007  12.888266  -20.800363  6.757626  4.173642  -15.629212  4.933323  3.362296  
